<?xml version="1.0" standalone="no"?>
<!DOCTYPE svg PUBLIC "-//W3C//DTD SVG 20010904//EN"
 "http://www.w3.org/TR/2001/REC-SVG-20010904/DTD/svg10.dtd">
<svg version="1.0" xmlns="http://www.w3.org/2000/svg"
 width="700.000000pt" height="700.000000pt" viewBox="0 0 700.000000 700.000000"
 preserveAspectRatio="xMidYMid meet">
<metadata>
Created by potrace 1.11, written by Peter Selinger 2001-2013
</metadata>
<g transform="translate(0.000000,700.000000) scale(0.100000,-0.100000)"
fill="#000000" stroke="none">
<path d="M3300 5826 c-3 -2 -35 -7 -72 -10 -69 -7 -78 -9 -163 -26 -27 -6 -59
-12 -70 -14 -70 -14 -275 -85 -374 -128 -374 -166 -693 -433 -931 -781 -33
-48 -60 -89 -60 -92 0 -2 -16 -31 -36 -64 -29 -49 -41 -61 -63 -62 -14 0 -33
-2 -41 -4 -8 -1 -33 -6 -54 -9 -143 -23 -312 -80 -466 -156 -412 -204 -728
-566 -878 -1005 -26 -77 -41 -138 -78 -320 -10 -50 -12 -366 -3 -435 18 -133
42 -238 81 -355 146 -444 466 -809 888 -1017 173 -84 373 -147 524 -163 31 -4
67 -9 79 -11 34 -8 4066 -7 4117 1 49 7 75 11 130 20 19 3 73 17 120 31 552
166 953 628 1036 1194 12 81 10 330 -3 420 -85 576 -510 1043 -1083 1191 -62
15 -73 17 -172 31 l-87 11 -6 39 c-4 21 -7 41 -7 45 0 5 -4 15 -9 24 -4 9 -10
28 -13 43 -5 29 -31 116 -45 151 -5 11 -19 47 -31 80 -59 152 -151 320 -268
482 -133 187 -327 376 -529 517 -29 20 -57 36 -62 36 -5 0 -11 4 -13 8 -3 8
-61 42 -186 108 -98 52 -349 144 -434 159 -17 3 -34 8 -38 10 -4 2 -22 7 -41
10 -19 3 -54 9 -79 15 -25 5 -63 12 -85 15 -48 8 -489 18 -495 11z m420 -590
c13 -3 41 -8 61 -11 20 -3 50 -10 68 -15 17 -5 34 -9 36 -9 11 0 121 -32 140
-41 11 -5 31 -12 45 -16 14 -3 70 -28 125 -54 314 -151 572 -404 733 -720 123
-243 178 -482 176 -772 l0 -98 255 -1 c141 0 265 -2 276 -4 11 -2 38 -7 61
-10 117 -16 306 -100 380 -170 6 -5 30 -26 54 -45 65 -53 145 -162 195 -264
243 -492 -22 -1071 -562 -1228 l-78 -23 -2030 -2 c-1930 -1 -2034 0 -2118 17
-332 69 -593 246 -775 525 -41 63 -115 233 -137 315 -125 468 45 957 435 1247
131 98 350 191 490 209 25 3 52 7 62 10 20 6 236 6 263 1 11 -3 41 -7 66 -11
118 -17 185 -39 325 -107 377 -180 629 -566 648 -988 1 -20 5 -41 8 -46 5 -8
495 -13 572 -6 7 1 -1 217 -9 231 -2 3 -6 27 -9 54 -18 133 -73 307 -146 463
-193 411 -554 739 -985 893 -49 18 -98 35 -108 39 -17 6 -15 10 13 46 40 51
124 139 182 190 244 219 530 353 850 399 91 13 386 15 438 2z"/>
</g>
</svg>
