<?xml version="1.0" encoding="utf-8"?>
<!-- Generator: Adobe Illustrator 25.0.1, SVG Export Plug-In . SVG Version: 6.00 Build 0)  -->
<svg version="1.1" xmlns="http://www.w3.org/2000/svg" xmlns:xlink="http://www.w3.org/1999/xlink" x="0px" y="0px"
	 viewBox="0 0 204.73 88.25" style="enable-background:new 0 0 204.73 88.25;" xml:space="preserve">
<style type="text/css">
	.st0{fill:#FF0000;}
	.st1{fill:#99004C;}
	.st2{fill:#7E0023;}
	.st3{fill:#FF7E00;}
	.st4{fill:#FFFF00;}
	.st5{fill:#00E400;}
	.st6{font-family:'Roboto-Medium';}
	.st7{font-size:12px;}
	.st8{fill:none;stroke:#000000;stroke-miterlimit:10;}
</style>
<g id="kleuren_x26_waarden">
	<g>
		<g>
			<path class="st0" d="M124.76,51.46c-6.49-3.93-14.09-6.19-22.23-6.19v-30.6c13.53,0,26.22,3.65,37.11,10.03L124.76,51.46z"/>
		</g>
		<g>
			<path class="st1" d="M139.8,66.83c-3.63-6.31-8.82-11.6-15.04-15.37l14.88-26.76c11.03,6.45,20.22,15.69,26.62,26.76L139.8,66.83
				z"/>
		</g>
		<g>
			<path class="st2" d="M166.26,51.46c6.26,10.82,9.84,23.39,9.84,36.79h-30.6c0-7.8-2.08-15.11-5.71-21.42L166.26,51.46z"/>
		</g>
		<g>
			<path class="st3" d="M102.53,45.28c-7.62,0-14.77,1.98-20.97,5.46l-15.83-26.2c10.83-6.27,23.4-9.85,36.8-9.85V45.28z"/>
		</g>
		<g>
			<path class="st4" d="M81.56,50.73c-7.09,3.97-12.93,9.89-16.81,17.03L38.23,52.46c6.47-11.61,16-21.28,27.49-27.93L81.56,50.73z"
				/>
		</g>
		<g>
			<path class="st5" d="M64.74,67.77c-3.31,6.09-5.19,13.07-5.19,20.48h-30.6c0-12.99,3.37-25.2,9.28-35.8L64.74,67.77z"/>
		</g>
	</g>
	<text transform="matrix(1 0 0 1 13.4887 87.2537)" class="st6 st7">0</text>
	<text transform="matrix(1 0 0 1 19.6853 50.7333)" class="st6 st7">50</text>
	<text transform="matrix(1 0 0 1 49.1982 18.789)" class="st6 st7">100</text>
	<text transform="matrix(1 0 0 1 92.29 10.0165)" class="st6 st7">150</text>
	<text transform="matrix(1 0 0 1 134.5507 18.7893)" class="st6 st7">200</text>
	<text transform="matrix(1 0 0 1 170.2255 50.7329)" class="st6 st7">300</text>
	<text transform="matrix(1 0 0 1 180.7343 87.494)" class="st6 st7">500</text>
</g>
<g id="arrow">
	<line class="st8" x1="102.57" y1="87.99" x2="35.5" y2="87.5"/>
</g>
<g id="circle">
	<circle cx="102.46" cy="87.99" r="2.26"/>
</g>
</svg>
